<svg width="24" height="24" viewBox="0 0 24 24" fill="none" xmlns="http://www.w3.org/2000/svg">
<path d="M12.0001 11.7376C14.6685 11.7376 16.8318 9.11006 16.8318 5.86882C16.8318 2.62752 16.1216 0 12.0001 0C7.87861 0 7.16821 2.62752 7.16821 5.86882C7.16821 9.11006 9.33157 11.7376 12.0001 11.7376Z" fill="black"/>
<path d="M2.87385 20.6985C2.87302 20.5009 2.8722 20.6428 2.87385 20.6985V20.6985Z" fill="black"/>
<path d="M21.1259 20.8528C21.1284 20.7987 21.1267 20.4775 21.1259 20.8528V20.8528Z" fill="black"/>
<path d="M21.1155 20.4614C21.0261 14.8151 20.2886 13.2062 14.6457 12.1877C14.6457 12.1877 13.8514 13.1999 11.9999 13.1999C10.1485 13.1999 9.35403 12.1877 9.35403 12.1877C3.77266 13.1951 2.9904 14.7801 2.88754 20.2779C2.8791 20.7269 2.8752 20.7505 2.87369 20.6984C2.87403 20.796 2.87444 20.9766 2.87444 21.2916C2.87444 21.2916 4.21789 23.9999 11.9999 23.9999C19.7818 23.9999 21.1254 21.2916 21.1254 21.2916C21.1254 21.0892 21.1256 20.9485 21.1258 20.8528C21.1243 20.885 21.1212 20.8225 21.1155 20.4614Z" fill="black"/>
</svg>
